<svg xmlns="http://www.w3.org/2000/svg" xmlns:xlink="http://www.w3.org/1999/xlink" viewBox="0 0 155 155"><defs><linearGradient id="a" x1="-317.22" x2="-344.28" y1="102" y2="92.48" gradientTransform="matrix(.5 .86 .86 -.5 125.63 380.33)" gradientUnits="userSpaceOnUse"><stop class="stopColorffa141 svgShape" offset="0" stop-color="#4189ff"/><stop class="stopColorffa747 svgShape" offset=".14" stop-color="#478dff"/><stop class="stopColorffba58 svgShape" offset=".64" stop-color="#5897ff"/><stop class="stopColorffc05e svgShape" offset="1" stop-color="#5e9bff"/></linearGradient><linearGradient id="d" x1="-334.04" x2="-319.83" y1="95.24" y2="95.24" gradientTransform="matrix(.5 .86 .86 -.5 125.63 380.33)" gradientUnits="userSpaceOnUse"><stop class="stopColorc7cfe4 svgShape" offset="0" stop-color="#c7d2e4"/><stop class="stopColore2e6f1 svgShape" offset="1" stop-color="#e2e8f1"/></linearGradient><linearGradient id="f" x1="61.69" x2="71.08" y1="115.32" y2="115.32" xlink:href="#a"/><linearGradient id="g" x1="78.62" x2="89.82" y1="39.24" y2="39.24" xlink:href="#a"/><linearGradient id="h" x1="36.63" x2="47.73" y1="58.73" y2="58.73" xlink:href="#a"/><linearGradient id="i" x1="54.84" x2="62.16" y1="136.42" y2="136.42" xlink:href="#a"/><linearGradient id="j" x1="137.77" x2="124.16" y1="121.12" y2="134.83" gradientUnits="userSpaceOnUse"><stop class="stopColorff5f82 svgShape" offset="0" stop-color="#5f9cff"/><stop class="stopColorff5c7c svgShape" offset=".3" stop-color="#5c9aff"/><stop class="stopColorff5269 svgShape" offset=".71" stop-color="#5294ff"/><stop class="stopColorff4959 svgShape" offset="1" stop-color="#498eff"/></linearGradient><linearGradient id="b" x1="137.94" x2="130.95" y1="139.96" y2="121.51" gradientUnits="userSpaceOnUse"><stop class="stopColorff172d svgShape" offset="0" stop-color="#176fff"/><stop class="stopColorff4a63 svgShape" offset=".39" stop-color="#4a8fff"/><stop class="stopColorff7a96 svgShape" offset=".8" stop-color="#7aacff"/><stop class="stopColorff8daa svgShape" offset="1" stop-color="#8db8ff"/></linearGradient><radialGradient id="c" cx="101.59" cy="85.84" r="63.86" gradientTransform="rotate(45 77.498 77.5)" gradientUnits="userSpaceOnUse"><stop class="stopColorafc8d7 svgShape" offset="0" stop-color="#afbed7"/><stop class="stopColorb4cbd9 svgShape" offset=".03" stop-color="#b4c2d9"/><stop class="stopColordce7ee svgShape" offset=".37" stop-color="#dce3ee"/><stop class="stopColorf6f9fa svgShape" offset=".63" stop-color="#f6f8fa"/><stop class="stopColorffffff svgShape" offset=".79" stop-color="#fff"/></radialGradient><radialGradient id="k" cx="-55.75" cy="330.09" r="5.72" gradientTransform="rotate(53.47 234.92 308.626)" xlink:href="#b"/><clipPath id="e"><path fill="none" d="M115.7,92.7V75.54l-2.16-4.24L114,42.71l1.74-3.81V17.23a1.08,1.08,0,0,0-1.52-1L17.37,60.07a1.08,1.08,0,0,0-.63,1V136.5a1.08,1.08,0,0,0,1.52,1l96.81-43.8A1.09,1.09,0,0,0,115.7,92.7Z"/></clipPath></defs><g class="color000000 svgShape" data-name="Layer 1"><circle cx="77.5" cy="77.5" r="69.7" fill="url(#c)" transform="rotate(-45 77.5 77.498)"/><path fill="#b0c0d9" d="M101.78,94.6c-22.14,7-56.24,22.31-76.17,34.23s-18.13,15.92,4,8.93,56.24-22.32,76.16-34.23S123.92,87.61,101.78,94.6Z" class="colorb0bed9 svgShape"/><path fill="#b0c0d9" d="M132.69,134.59a16.64,16.64,0,0,0-12.5.09c-3.44,1.65-3.43,4.28,0,5.88a16.64,16.64,0,0,0,12.5-.09C136.17,138.83,136.16,136.19,132.69,134.59Z" class="colorb0bed9 svgShape"/><polygon fill="url(#a)" points="36.16 71.52 56.5 59.71 56.45 23.85 36.07 35.68 36.16 71.52"/><path fill="#eeeff2" d="M38.15,72.59a.19.19,0,0,1-.1,0,.21.21,0,0,1-.1-.17l-.08-35.84a.21.21,0,0,1,.09-.18L58.35,24.54a.23.23,0,0,1,.2,0,.22.22,0,0,1,.1.18l.05,35.86a.21.21,0,0,1-.1.17L38.25,72.56A.17.17,0,0,1,38.15,72.59Zm.12-35.93L38.35,72,58.3,60.46l0-35.4Z" class="coloreef0f2 svgShape"/><polygon fill="#6fa6ff" points="36.07 35.68 20.32 26.6 40.67 14.79 56.45 23.85 36.07 35.68" class="colorffd56f svgShape"/><polygon fill="#b0c0d9" points="29.8 32.06 36.08 28.41 32.86 26.63 26.64 30.24 29.8 32.06" class="colorb0bed9 svgShape"/><path fill="#182437" d="M39.61,20.84l4.26-2.47-3.35-1.92-4.26,2.47Zm0-.35-2.74-1.57,3.65-2.12,2.73,1.57Z" class="color182837 svgShape"/><polygon fill="#182437" points="40.63 17.58 41.77 18.23 40.61 18.91 41.17 19.23 38.57 19.43 38.92 17.93 39.48 18.25 40.63 17.58" class="color182837 svgShape"/><polygon fill="url(#d)" points="47.54 39.41 47.49 55.87 40.22 60.1 40.26 43.64 47.54 39.41"/><polygon fill="#182437" points="41.24 58.1 41.26 57 46.59 53.91 46.57 55.01 41.24 58.1" class="color182837 svgShape"/><polygon fill="#182437" points="41.26 56.24 41.29 55.69 46.62 52.59 46.59 53.15 41.26 56.24" class="color182837 svgShape"/><polygon fill="#182437" points="41.27 54.67 41.29 53.57 46.62 50.48 46.6 51.58 41.27 54.67" class="color182837 svgShape"/><polygon fill="#182437" points="41.29 52.81 41.29 52.4 46.62 49.31 46.62 49.72 41.29 52.81" class="color182837 svgShape"/><polygon fill="#182437" points="41.32 50.3 41.31 50.14 46.63 47.05 46.65 47.2 41.32 50.3" class="color182837 svgShape"/><polygon fill="#182437" points="41.31 55.26 41.3 55.1 46.62 52.01 46.64 52.17 41.31 55.26" class="color182837 svgShape"/><polygon fill="#182437" points="41.34 48.87 41.33 48.71 46.65 45.62 46.67 45.78 41.34 48.87" class="color182837 svgShape"/><polygon fill="#182437" points="41.34 48.59 41.33 48.44 46.65 45.34 46.67 45.5 41.34 48.59" class="color182837 svgShape"/><polygon fill="#182437" points="41.28 53.41 41.27 53.26 46.6 50.16 46.61 50.32 41.28 53.41" class="color182837 svgShape"/><polygon fill="#182437" points="41.28 53.14 41.27 52.98 46.6 49.89 46.61 50.04 41.28 53.14" class="color182837 svgShape"/><polygon fill="#182437" points="41.26 56.87 41.24 56.71 46.57 53.62 46.59 53.78 41.26 56.87" class="color182837 svgShape"/><polygon fill="#182437" points="41.26 56.6 41.24 56.44 46.57 53.34 46.59 53.5 41.26 56.6" class="color182837 svgShape"/><polygon fill="#182437" points="41.3 46.07 41.28 45.91 46.61 42.82 46.63 42.98 41.3 46.07" class="color182837 svgShape"/><polygon fill="#182437" points="41.3 45.79 41.28 45.63 46.61 42.54 46.63 42.7 41.3 45.79" class="color182837 svgShape"/><polygon fill="#182437" points="41.32 47.51 41.31 47.35 46.64 44.26 46.65 44.42 41.32 47.51" class="color182837 svgShape"/><polygon fill="#182437" points="41.33 52.05 41.33 50.61 46.66 47.51 46.66 48.96 41.33 52.05" class="color182837 svgShape"/><polygon fill="#182437" points="41.33 49.85 41.33 49.02 46.65 45.92 46.65 46.76 41.33 49.85" class="color182837 svgShape"/><polygon fill="#182437" points="41.37 48.26 41.36 47.72 46.69 44.63 46.7 45.17 41.37 48.26" class="color182837 svgShape"/><polygon fill="#182437" points="41.36 46.97 41.36 46.13 46.69 43.04 46.69 43.87 41.36 46.97" class="color182837 svgShape"/><polygon fill="#182437" points="41.38 45.4 41.4 44.3 46.73 41.2 46.71 42.3 41.38 45.4" class="color182837 svgShape"/><polygon fill="#91bbff" points="20.32 26.6 20.5 62.67 36.16 71.52 36.07 35.68 20.32 26.6" class="colorffde91 svgShape"/><polygon fill="#fff" points="29.76 67.85 29.81 32.07 26.64 30.24 26.77 66.26 29.76 67.85" class="colorffffff svgShape"/><polygon fill="#182437" points="69.88 24.02 69.1 23.4 72.1 19.56 74.32 20.65 77.13 17.51 77.87 18.18 74.56 21.88 72.39 20.82 69.88 24.02" class="color182837 svgShape"/><polygon fill="#182437" points="69.88 20.65 69.1 20.04 72.1 16.2 74.32 17.28 77.13 14.14 77.87 14.81 74.56 18.51 72.39 17.45 69.88 20.65" class="color182837 svgShape"/><path fill="#182437" d="M15.75,58.16l97.12-44.3a1.69,1.69,0,0,1,1.39,0l1.8.84c.6.43,0,.66,0,1.5V92.43a2.44,2.44,0,0,1-1.43,2.22L16.72,139,15.08,138a2.41,2.41,0,0,1-.76-1.75V60.38A2.45,2.45,0,0,1,15.75,58.16Z" class="color182837 svgShape"/><path fill="#5a6371" d="M117.2,16.78V93a2.43,2.43,0,0,1-1.43,2.22L18.92,139.06a2.44,2.44,0,0,1-3.46-2.22V61a2.45,2.45,0,0,1,1.43-2.22l96.85-44.17A2.45,2.45,0,0,1,117.2,16.78Z" class="color5a5c71 svgShape"/><path fill="#eeeff2" d="M115.7,92.7V75.54l-2.16-4.24L114,42.71l1.74-3.81V17.23a1.08,1.08,0,0,0-1.52-1L17.37,60.07a1.08,1.08,0,0,0-.63,1V136.5a1.08,1.08,0,0,0,1.52,1l96.81-43.8A1.09,1.09,0,0,0,115.7,92.7Z" class="coloreef0f2 svgShape"/><g class="color000000 svgShape" clip-path="url(#e)"><polygon fill="#b0c0d9" points="29.7 88.03 25.85 79.86 18.86 84 22.71 92.05 29.7 88.03" class="colorb0bed9 svgShape"/><polygon fill="#b0c0d9" points="23.4 75.66 19.81 68 13.16 71.88 16.83 79.6 23.4 75.66" class="colorb0bed9 svgShape"/><polygon fill="#b0c0d9" points="35.39 69.2 31.59 61.95 25.85 65.11 29.57 72.72 35.39 69.2" class="colorb0bed9 svgShape"/><polygon fill="#b0c0d9" points="29.08 56.09 25.97 49.75 20.22 52.91 23.14 59.32 29.08 56.09" class="colorb0bed9 svgShape"/><polygon fill="#b0c0d9" points="33.65 129.93 24.05 109.79 14.73 115.76 24.34 135.68 33.65 129.93" class="colorb0bed9 svgShape"/><path fill="#b0c0d9" d="M46.36,92.93,44,87.56a.89.89,0,0,0-1.29-.4l-4.35,2.68A.9.9,0,0,0,38,91l2.19,5.37a.9.9,0,0,0,1.3.43L46,94.07A.9.9,0,0,0,46.36,92.93Z" class="colorb0bed9 svgShape"/><polygon fill="#b0c0d9" points="57.74 86.67 54.62 79.6 48.82 83.17 52.09 90.18 57.74 86.67" class="colorb0bed9 svgShape"/><polygon fill="#b0c0d9" points="35.13 101.68 31.88 93.6 25.39 97.47 29.06 105.16 35.13 101.68" class="colorb0bed9 svgShape"/><polygon fill="#b0c0d9" points="89.75 120.98 80.06 102.76 73.93 106.26 80.94 118.57 67.3 127.33 70.14 133.89 89.75 120.98" class="colorb0bed9 svgShape"/><polygon fill="#b0c0d9" points="114.39 105.83 114.39 102.11 103.28 108.88 97.52 97.94 114.39 86.99 114.39 81.45 87.08 99.23 96.42 116.75 114.39 105.83" class="colorb0bed9 svgShape"/><polygon fill="#b0c0d9" points="57.92 124.53 55.04 117.26 43.95 123.35 37.53 107.18 31.66 110.65 42.2 134.37 57.92 124.53" class="colorb0bed9 svgShape"/><path fill="url(#f)" d="M70.84,114.9l-2-3.55a1.7,1.7,0,0,0-2.37-.59l-3.92,2.43a1.71,1.71,0,0,0-.65,2.16l1.74,3.78a1.7,1.7,0,0,0,2.46.73l4.23-2.67A1.69,1.69,0,0,0,70.84,114.9Z"/><polygon fill="#b0c0d9" points="64.36 103.97 60.09 92.86 43.08 103.65 47.38 113.8 64.36 103.97" class="colorb0bed9 svgShape"/><polygon fill="#b0c0d9" points="76.75 96.67 71.17 85.94 66.22 89.14 70.64 100.15 76.75 96.67" class="colorb0bed9 svgShape"/><polygon fill="#b0c0d9" points="93.05 86.01 87.36 75.66 77.93 81.69 83.75 92.13 93.05 86.01" class="colorb0bed9 svgShape"/><polygon fill="#b0c0d9" points="107.41 76.81 101.72 66.46 92.28 72.48 98.11 82.93 107.41 76.81" class="colorb0bed9 svgShape"/><polygon fill="#b0c0d9" points="114.75 72.48 114.75 58.47 106.65 63.39 112.48 73.87 114.75 72.48" class="colorb0bed9 svgShape"/><polygon fill="#b0c0d9" points="51.96 66.89 31.41 77.33 35.11 84.46 55.56 73.93 51.96 66.89" class="colorb0bed9 svgShape"/><path fill="#0d55ca" d="M65.25,68.72a4.1,4.1,0,0,1,0-1.21A3.84,3.84,0,0,1,67.05,65L87.86,52.16A3.83,3.83,0,0,1,93.67,55l1,8.39a3.82,3.82,0,0,1-2.48,4.05h0l-19.8,7.29A3.83,3.83,0,0,1,68,73.33l-2-2.83A4,4,0,0,1,65.25,68.72Z" class="color0dca6f svgShape"/><polygon fill="#b0c0d9" points="17.53 62.86 14.51 56.6 7.19 61.61 9.54 67.15 17.53 62.86" class="colorb0bed9 svgShape"/><path fill="#b0c0d9" d="M61,45.57v8.36a.89.89,0,0,1-.67.87l-3,.81a.67.67,0,0,0-.18.07l-3.57,1.85A.9.9,0,0,1,52.37,57L50.3,51.51a.9.9,0,0,1,.37-1.08l9-5.63A.91.91,0,0,1,61,45.57Z" class="colorb0bed9 svgShape"/><path fill="#b0c0d9" d="M78,48.65,73.1,37.48a.9.9,0,0,0-1.32-.39l-4,2.65a.89.89,0,0,0-.32,1.12l4.13,9a.81.81,0,0,1,.09.37h0a.89.89,0,0,0,1.13.87l4.57-1.24A.9.9,0,0,0,78,48.65Z" class="colorb0bed9 svgShape"/><path fill="url(#g)" d="M82.75,31.19a1.27,1.27,0,0,0-.68.19l-2.83,1.74a1.29,1.29,0,0,0-.52,1.61L83.66,46.5a1.3,1.3,0,0,0,1.57.74l3.66-1.07a1.3,1.3,0,0,0,.81-1.8L83.93,31.94a1.28,1.28,0,0,0-.8-.69A1.26,1.26,0,0,0,82.75,31.19Z"/><polygon fill="#b0c0d9" points="101.13 43.41 102.5 42.69 94.36 23.57 88.4 27.21 96.47 44.62 101.13 43.41" class="colorb0bed9 svgShape"/><path fill="#b0c0d9" d="M114.75,50.61V46l-1.63-2.5c-1.74.85-4,1.8-5.82,2.52l3.58,6.89Z" class="colorb0bed9 svgShape"/><path fill="#b0c0d9" d="M106.45,40.73c1.75-.92,3.49-1.86,5-2.73L101.33,15.66,98,17.76Z" class="colorb0bed9 svgShape"/><path fill="url(#h)" d="M46.58,61.32a2.42,2.42,0,0,0,.48-3.73A9.07,9.07,0,0,0,44,55.33c-1.23-.49-2.28-.95-3.18-1.4a2.45,2.45,0,0,0-2.36.09l-.63.38a2.42,2.42,0,0,0-.84,3.25l2.81,4.93a2.41,2.41,0,0,0,3.35.86Z"/><polygon fill="#b0c0d9" points="16.15 107.48 23.27 105.83 17.33 90.66 11.44 94.85 16.15 107.48" class="colorb0bed9 svgShape"/><polygon fill="#b0c0d9" points="115.37 35.95 122.21 32.97 118.4 15.23 110.64 12.56 106.07 13.62 115.37 35.95" class="colorb0bed9 svgShape"/></g><path fill="#182437" d="M24.14,140.44a3.3,3.3,0,0,1-1.81-.54,3.34,3.34,0,0,1-1.54-2.81V66.19a3.37,3.37,0,0,1,2-3L115.42,21.2a3.35,3.35,0,0,1,4.73,3.05v18a2.33,2.33,0,0,1-.2.94l-1.38,3a1.9,1.9,0,0,0-.16.75L118,74.59a2,2,0,0,0,.2.88l1.7,3.33a2.22,2.22,0,0,1,.25,1V95.16a3.35,3.35,0,0,1-2,3L25.52,140.14A3.33,3.33,0,0,1,24.14,140.44ZM116.81,21.3a2.89,2.89,0,0,0-1.22.27L22.93,63.5a3,3,0,0,0-1.73,2.69v70.9a2.93,2.93,0,0,0,4.16,2.68L118,97.85a3,3,0,0,0,1.73-2.69V79.84a2,2,0,0,0-.2-.86l-1.7-3.32a2.22,2.22,0,0,1-.25-1.07L118,47a2.33,2.33,0,0,1,.21-.91l1.37-3a2,2,0,0,0,.17-.78v-18a2.95,2.95,0,0,0-2.94-2.95Z" class="color182837 svgShape"/><path fill="#182437" d="M115.52,64.56h0A.54.54,0,0,1,115,64V52.84a.54.54,0,0,1,.54-.54h0a.54.54,0,0,1,.54.54V64A.54.54,0,0,1,115.52,64.56Z" class="color182837 svgShape"/><path fill="#182437" d="M135.57,60.81a1.92,1.92,0,0,1-1.37-.57L131.92,58a2,2,0,0,1,0-2.75L134.2,53a1.93,1.93,0,0,1,2.74,0l2.28,2.27a2,2,0,0,1,0,2.75l-2.28,2.27A1.92,1.92,0,0,1,135.57,60.81Zm0-7.43a.9.9,0,0,0-.66.28l-2.28,2.27a1,1,0,0,0,0,1.33l2.28,2.27a.94.94,0,0,0,1.33,0l2.27-2.27a.94.94,0,0,0,0-1.33l-2.27-2.27A.94.94,0,0,0,135.57,53.38Z" class="color182837 svgShape"/><polygon fill="#3b82f6" points="130.87 17.02 139.73 15.15 136.81 23.72 130.87 17.02" class="color6a8aff svgShape"/><polygon fill="#7098d9" points="101.78 122.72 105.82 130.83 96.79 130.15 101.78 122.72" class="color70d994 svgShape"/><path fill="#5a6371" d="M128.73,112.57a.85.85,0,0,1-.64-1.41l3.53-4a.86.86,0,0,1,.94-.24l3.2,1.21a.85.85,0,0,1-.59,1.59l-2.66-1-3.14,3.58A.87.87,0,0,1,128.73,112.57Z" class="color5a5c71 svgShape"/><path fill="#5a6371" d="M128.45,108.31a.84.84,0,0,1-.56-.2.85.85,0,0,1-.08-1.2l3.69-4.26a.85.85,0,0,1,1-.22l3.36,1.51a.85.85,0,0,1-.7,1.55l-2.78-1.25L129.09,108A.85.85,0,0,1,128.45,108.31Z" class="color5a5c71 svgShape"/><path fill="#5a6371" d="M128.14,103.65a.84.84,0,0,1-.55-.21.83.83,0,0,1-.09-1.19l3.87-4.54a.86.86,0,0,1,1-.19l3.51,1.88a.84.84,0,0,1,.35,1.15.85.85,0,0,1-1.15.35l-2.91-1.56-3.43,4A.85.85,0,0,1,128.14,103.65Z" class="color5a5c71 svgShape"/><path fill="#5a6371" d="M127.8,98.5a.81.81,0,0,1-.54-.2.84.84,0,0,1-.11-1.19l4.08-4.83a.85.85,0,0,1,1.1-.18L136,94.42a.85.85,0,0,1-.9,1.44l-3.07-1.92-3.6,4.26A.83.83,0,0,1,127.8,98.5Z" class="color5a5c71 svgShape"/><path fill="url(#i)" d="M62.16,136.42a3.66,3.66,0,1,1-3.66-3.66A3.66,3.66,0,0,1,62.16,136.42Z"/><path fill="#182437" d="M130.35,140.14a1.07,1.07,0,0,1-.52-.14l-5.16-3.11a3.16,3.16,0,0,1,.2-5.53l2.81-1.43a1.16,1.16,0,0,0,.64-1,1.14,1.14,0,0,0-.61-1l-16.36-9a3.16,3.16,0,0,1,.16-5.63l2.29-1.1a1.16,1.16,0,0,0,0-2.08l-1.58-.83a1.17,1.17,0,0,0-1,0L86.48,120.65a3.15,3.15,0,0,1-3.06-.22l-9-5.81a3.15,3.15,0,0,1-1.11-1.24l-11-22a1.14,1.14,0,0,0-.7-.59,1.09,1.09,0,0,0-.9.09l-7.26,4a3.19,3.19,0,0,1-4.38-1.41l-2.33-4.85a1,1,0,0,1,1.81-.87l2.33,4.86a1.16,1.16,0,0,0,1.61.51l7.26-4a3.17,3.17,0,0,1,4.35,1.37l11,22a1.2,1.2,0,0,0,.41.46l9,5.8a1.17,1.17,0,0,0,1.13.08l24.75-11.45a3.14,3.14,0,0,1,2.8.07l1.59.83a3.17,3.17,0,0,1-.11,5.66l-2.3,1.1a1.17,1.17,0,0,0-.06,2.07l16.37,9a3.16,3.16,0,0,1-.09,5.59l-2.81,1.43a1.15,1.15,0,0,0-.64,1,1.17,1.17,0,0,0,.56,1l5.16,3.1a1,1,0,0,1-.51,1.86Z" class="color182837 svgShape"/><path fill="url(#j)" d="M138.75,117.55a15.81,15.81,0,0,0-2.86-2.15,7.09,7.09,0,0,0-5.41.06c-4.71,1.84-8.16,7.54-7.71,12.74a7.73,7.73,0,0,0,1.58,4.3c.85,1,6.24,7.12,6.24,7.12l1.64,1.36Zm-9.55,14.58c-2.44.24-3.81-2-3.89-4.2-.19-4.12,3.09-10.56,7.75-11,3-.32,4.64,2.84,3.57,7S132.23,131.82,129.2,132.13Z"/><path fill="#2678ff" d="M134.94,118.21a7.89,7.89,0,0,1,1.28,4.37c0,4.7-3.58,9.23-8.55,9.3a3.21,3.21,0,0,0,1.17,1.2,3.07,3.07,0,0,0,1.2.38,3.57,3.57,0,0,0,.8,0c3-.31,6.36-4,7.43-8.18S137.82,118.09,134.94,118.21Z" class="colorff2657 svgShape"/><path fill="url(#b)" d="M140.91,123.46c0-4.74-2.43-6.31-3.38-6.7a7.09,7.09,0,0,0-5.41.06c-4.71,1.84-8.16,7.54-7.71,12.74a7.76,7.76,0,0,0,1.58,4.3c.85,1,6.24,7.12,6.24,7.12S140.91,128,140.91,123.46Zm-10.07,10c-2.44.25-3.89-2-3.89-4.2,0-5.36,3.09-10.56,7.75-11,3-.32,4.64,2.84,3.57,7S133.88,133.18,130.84,133.49Z"/><path fill="#fff" d="M125.84,134a7.9,7.9,0,0,1-1.63-4.41c-.46-5.27,3.06-11.08,7.83-13a7.34,7.34,0,0,1,5.56-.06l-.15.37a7,7,0,0,0-5.26.06c-4.62,1.81-8,7.44-7.58,12.54a7.56,7.56,0,0,0,1.53,4.19Z" class="colorffffff svgShape"/><path fill="#182437" d="M132.54,138.17l-.18-.19c-.18-.21-4.53-5.06-5.24-5.92a6.56,6.56,0,0,1-1.37-3.68,11.12,11.12,0,0,1,6.6-10.78,6.24,6.24,0,0,1,4.69,0c.69.28,3,1.54,3,5.75,0,3.76-7,14.22-7.32,14.66Zm2.28-20.65a6.51,6.51,0,0,0-2.33.45,10.71,10.71,0,0,0-6.34,10.38,6.2,6.2,0,0,0,1.28,3.46c.62.75,4.23,4.78,5.06,5.71,1-1.53,7.11-10.87,7.11-14.22,0-4-2.08-5.12-2.71-5.38A5.45,5.45,0,0,0,134.82,117.52Z" class="color182837 svgShape"/><polygon fill="url(#k)" points="48.9 81.38 47.66 93.73 44.26 88.58 38.24 87.67 48.9 81.38"/></g></svg>