<svg xmlns="http://www.w3.org/2000/svg" enable-background="new 0 0 750 700" viewBox="0 0 750 700"><linearGradient id="a" x1="556.366" x2="575.869" y1="179.55" y2="179.55" gradientUnits="userSpaceOnUse"><stop class="stopColor191923 svgShape" offset="0" stop-color="#191d23"/><stop class="stopColor0c0c14 svgShape" offset="1" stop-color="#0c0f14"/></linearGradient><path fill="url(#a)" d="M556.728 171.258c.02.831-2.937 19.353 7.717 22.168 10.654 2.815 12.048-15.453 11.229-16.361-.82-.908-9.556-11.685-9.556-11.685"/><path fill="#98b6e6" d="M220.431 622.284c-20.497 0-40.51-2.74-58.166-8.355-38.907-12.372-73.368-46.088-94.547-92.501-12.817-28.088-13.431-60.885-12.934-94.83.797-54.287 3.15-116.982 21.091-174.027 19.394-61.661 55.297-107.557 98.504-125.919l1.655-.703-6.57 9.08c25.646-25.465 64.425-27.023 99.4-26.284 59.59 1.257 121.208 2.556 180.894 15.669 67.126 14.747 122.746 42.926 165.315 83.753 23.871 22.896 44.199 51.107 58.784 81.585 15.641 32.686 24.441 66.784 26.155 101.349 2.403 48.424-13.338 106.503-53.921 127.097-29.09 14.76-62.674 6.002-91.691-4.514a1470.36 1470.36 0 0 1-9.427-3.465c-26.565-9.833-54.032-20-81.468-15.354-33.225 5.626-60.085 31.727-86.062 56.968-20.296 19.721-41.282 40.114-65.572 51.381-27.053 12.55-59.823 19.07-91.44 19.07zM173.1 128.298c-42.192 18.712-77.216 63.99-96.27 124.573-17.902 56.917-20.25 119.525-21.046 173.74-.496 33.828.114 66.503 12.844 94.402 21.062 46.157 55.301 79.676 93.94 91.963 17.564 5.585 37.481 8.312 57.873 8.313 31.47.001 64.08-6.49 91.01-18.982 24.135-11.196 45.06-31.528 65.295-51.19 26.086-25.349 53.06-51.56 86.593-57.238 27.694-4.69 55.293 5.524 81.98 15.402 3.15 1.166 6.29 2.328 9.422 3.463 28.816 10.443 62.148 19.151 90.897 4.563 40.183-20.392 55.763-78.055 53.376-126.156-3.346-67.453-34.194-133.885-84.634-182.262-42.434-40.699-97.893-68.792-164.837-83.499-59.59-13.091-121.159-14.39-180.7-15.645-38.557-.814-81.78 1.166-106.529 35.165l-.81-.587.001-.001 11.595-16.024z" class="color98b1e6 svgShape"/><path fill="#073f9b" d="m49.872 142.248 31.349 392.33c1.55 18.256 17.619 33.067 35.874 33.067h173.061c18.255 0 31.808-14.811 30.258-33.066l-31.348-392.33c-1.55-18.256-17.62-33.067-35.875-33.067H80.131c-18.256 0-31.81 14.81-30.259 33.066z" class="color074a9b svgShape"/><path fill="#3b82f6" d="m58.572 142.248 31.348 392.33c1.55 18.256 17.62 33.067 35.875 33.067h173.06c18.256 0 31.81-14.811 30.259-33.066l-31.349-392.33c-1.55-18.256-17.619-33.067-35.874-33.067H88.83c-18.255 0-31.808 14.81-30.258 33.066z" class="color4285f4 svgShape"/><path fill="#fff" d="M297.688 559.624c.162 0 .334-.004.504-.013 6.602-.126 12.616-2.82 16.947-7.594 4.392-4.84 6.499-11.203 5.933-17.916L289.72 141.794c-1.146-13.57-13.103-24.591-26.656-24.591h-30.27c-6.964 0-13.146 4.076-15.75 10.384l-1.403 3.375c-.79 1.921-2.571 3.056-4.774 3.056h-65.811c-2.469 0-4.923-1.472-6.252-3.748l-1.981-3.39c-3.475-5.966-9.819-9.677-16.551-9.677h-30.27c-6.742 0-12.903 2.663-17.347 7.498-4.466 4.859-6.61 11.264-6.037 18.036l31.351 392.305c1.147 13.566 13.104 24.582 26.657 24.582h173.062z" class="colorffffff svgShape"/><path fill="#d4e1f6" d="m549.221 577.844 3.694 24.548 21.487 2.834 4.308-3.003-.642-10.863-3.466-23.035z" class="colord4e3f6 svgShape"/><path fill="#191d23" d="M520.011 615.324h.012c.356.836.732 1.563 1.079 2.18.675 1.187 1.823 2.059 3.104 2.362.628.145 1.304.29 2 .411 15.17 2.786 45.742.884 55.288.182 1.774-.12 3.084-1.393 3.22-3.148.068-.837.117-1.635.166-2.435.507-11.444-.853-21.847-6.808-23.519-1.453-.4-2.049 4.736-3.37 5.862-2.981 2.556-9.754 3.5-14.25 1.635-.854-.363-1.611-.812-2.264-1.369-2.84-2.458-1.633-10.45-8.446-9.773-5.789.57-4.35 5.062-5.034 7.194-.5 1.586-1.466 2.81-2.712 3.79-5.393 4.154-16.296 3.573-20.72 6.528a4.823 4.823 0 0 0-1.05.909c-2.263 2.664-1.413 6.382-.215 9.191z" class="color191923 svgShape"/><path fill="#d4e1f6" d="M520.015 615.33h.012c.356.835.732 1.562 1.08 2.18.674 1.186 1.823 2.058 3.104 2.36.627.146 1.303.292 2 .412 15.17 2.786 45.741.885 55.287.182 1.775-.12 3.085-1.393 3.22-3.148.068-.836.117-1.635.167-2.435l-.014-.012s-29.047 2.77-49.382 2.2c-3.563-.1-6.993-2.548-8.372-5.991-.391-.977-.797-1.851-1.163-2.397-.833-1.272-1.924-2.483-3.298-3.089a4.712 4.712 0 0 0-1.375-.363 4.825 4.825 0 0 0-1.05.909c-2.264 2.664-1.414 6.382-.216 9.191z" class="colord4e3f6 svgShape"/><linearGradient id="b" x1="562.344" x2="562.344" y1="573.451" y2="581.206" gradientUnits="userSpaceOnUse"><stop class="stopColor30355c svgShape" offset="0" stop-color="#30415c"/><stop class="stopColor262c51 svgShape" offset=".997" stop-color="#263651"/></linearGradient><path fill="url(#b)" d="m580.682 567.92-.616 3.374-1.513 8.368c.165 1.09-1.752 1.968-4.655 2.602-.134.032-.28.064-.414.095-.125.022-.26.043-.384.074-.167.032-.322.064-.5.096-.207.042-.426.074-.655.116-.333.053-.678.106-1.033.148-8.411 1.122-25.66.228-26.03-2.363-.306-2.031-.875-15.219-.875-15.219l24.636 1.46 3.934-.92 1.978-.455h.222l1.701-.021 1.31-.032 2.334-.032.56 2.708z"/><linearGradient id="c" x1="565.379" x2="563.964" y1="550.004" y2="566.896" gradientUnits="userSpaceOnUse"><stop class="stopColor30355c svgShape" offset="0" stop-color="#30415c"/><stop class="stopColor262c51 svgShape" offset=".997" stop-color="#263651"/></linearGradient><path fill="url(#c)" d="m605.854 371.605-22.048 194.007c-.356 11.213-39.572 11.877-41.296.416 0 0 10.033-147.447 12.368-195.447"/><linearGradient id="d" x1="2143.256" x2="2184.133" y1="481.421" y2="481.421" gradientTransform="matrix(1 0 .09347 1 -1626.821 .001)" gradientUnits="userSpaceOnUse"><stop class="stopColor191923 svgShape" offset="0" stop-color="#191d23"/><stop class="stopColor0c0c14 svgShape" offset="1" stop-color="#0c0f14"/></linearGradient><path fill="url(#d)" d="m592.874 380.453-18.097 184.843-.795 8.124-.882 9.013c-.167.032-.322.064-.5.096-.207.042-.426.074-.655.116-.333.053-.678.106-1.033.148l.875-8.97.79-8.072 18.186-185.7"/><path fill="#d4e1f6" d="m633.377 577.844 3.693 24.548 21.487 2.834 4.308-3.003-.642-10.863-3.466-23.035z" class="colord4e3f6 svgShape"/><path fill="#191d23" d="M604.166 615.324h.012c.356.836.732 1.563 1.079 2.18.675 1.187 1.824 2.059 3.104 2.362.628.145 1.304.29 2 .411 15.17 2.786 45.742.884 55.288.182 1.774-.12 3.084-1.393 3.22-3.148.068-.837.117-1.635.166-2.435.507-11.444-.853-21.847-6.808-23.519-1.453-.4-2.049 4.736-3.37 5.862-2.981 2.556-9.754 3.5-14.25 1.635-.854-.363-1.611-.812-2.264-1.369-2.84-2.458-1.633-10.45-8.446-9.773-5.789.57-4.35 5.062-5.034 7.194-.5 1.586-1.466 2.81-2.712 3.79-5.393 4.154-16.296 3.573-20.72 6.528a4.825 4.825 0 0 0-1.05.909c-2.263 2.664-1.413 6.382-.215 9.191z" class="color191923 svgShape"/><path fill="#d4e1f6" d="M604.17 615.33h.012c.356.835.732 1.562 1.08 2.18.674 1.186 1.823 2.058 3.104 2.36.627.146 1.303.292 2 .412 15.17 2.786 45.741.885 55.287.182 1.775-.12 3.085-1.393 3.22-3.148.068-.836.117-1.635.167-2.435l-.014-.012s-29.047 2.77-49.382 2.2c-3.563-.1-6.993-2.548-8.372-5.991-.391-.977-.797-1.851-1.163-2.397-.833-1.272-1.924-2.483-3.298-3.089a4.712 4.712 0 0 0-1.375-.363 4.825 4.825 0 0 0-1.05.909c-2.264 2.664-1.414 6.382-.216 9.191z" class="colord4e3f6 svgShape"/><linearGradient id="e" x1="646.247" x2="646.247" y1="572.016" y2="577.086" gradientUnits="userSpaceOnUse"><stop class="stopColor30355c svgShape" offset="0" stop-color="#30415c"/><stop class="stopColor262c51 svgShape" offset=".997" stop-color="#263651"/></linearGradient><path fill="url(#e)" d="M662.707 579.662c.148 1.015-1.489 1.84-4.054 2.465-.32.084-.662.158-1.015.232l-.831.16c-.073.01-.146.02-.218.041-.157.022-.323.053-.49.085-.178.021-.354.053-.542.085-8.309 1.195-23.979.825-24.363-1.81-.312-2.094-.794-7.024-1.1-10.409-.189-2.02-.316-3.501-.316-3.501l23.02-.339 1.024-.01.581-.011.602-.01h.095l2.018-.032 2.852-.043.56 2.708.001.011 2.176 10.378z"/><linearGradient id="f" x1="664.38" x2="669.567" y1="542.883" y2="555.849" gradientUnits="userSpaceOnUse"><stop class="stopColor30355c svgShape" offset="0" stop-color="#30415c"/><stop class="stopColor262c51 svgShape" offset=".997" stop-color="#263651"/></linearGradient><path fill="url(#f)" d="m642.08 370.581 18.81 196.977c1.368 7.413-31.73 7.677-33.098.263l-33.913-197.24"/><linearGradient id="g" x1="2226.68" x2="2231.06" y1="481.305" y2="481.305" gradientTransform="matrix(1 0 .09347 1 -1626.821 .001)" gradientUnits="userSpaceOnUse"><stop class="stopColor191923 svgShape" offset="0" stop-color="#191d23"/><stop class="stopColor0c0c14 svgShape" offset="1" stop-color="#0c0f14"/></linearGradient><path fill="url(#g)" d="M637.458 380.051c1.614 5.723 14.756 137.154 19.66 186.557l.477 4.76c.473 4.718.826 8.39 1.058 10.759-.32.084-.662.158-1.015.232l-.831.16c-.073.01-.146.02-.218.041-.336-3.364-.675-6.876-1.046-10.504a475.326 475.326 0 0 0-.538-5.417c-7.039-71.004-18.203-181.267-19.583-186.186"/><path fill="#3479ea" d="M485.666 305.746s39.414 34.294 59.382 30.79c17.4-3.051 48.23-51.649 48.23-51.649l-17.606-31.7s-21.497 8.684-41.99 41.34l-35.934-19.083c-8.222-4.24-21.562 22.734-12.082 30.302z" class="colorea4234 svgShape"/><path fill="#064dc1" d="M570.883 256.208s-4.575-9.673 1.7-11.967 27.413-3.163 27.569-3.153 2.427 8.952 2.427 8.952l-25.889 12.315-5.732-1.853-.075-4.294z" class="colorc10b06 svgShape"/><path fill="#fff" d="M603.26 251.517s-17.713-1.887-28.339 4.26c-21.301 12.324-20.739 134.448-15.926 136.052 7.736 7.196 54.841 4.05 55.893-2.887L603.26 251.517z" class="colorffffff svgShape"/><path fill="#cfe1ff" d="m577.51 216.176 7.546 23.467h.006l.136.432 3.673 11.414c-1.985 7.473 11.47 2.296 26.075-3.82l-9.425-38.336-6.258 2.108-21.754 4.735z" class="colorffd4cf svgShape"/><linearGradient id="h" x1="3554.168" x2="3554.168" y1="700.833" y2="694.812" gradientTransform="scale(-1 1) rotate(-3.879 -5303.155 61639.785)" gradientUnits="userSpaceOnUse"><stop class="stopColorffd4cf svgShape" offset="0" stop-color="#cfe1ff"/><stop class="stopColorf8b7b3 svgShape" offset="1" stop-color="#b3cdf8"/></linearGradient><path fill="url(#h)" d="M576.576 213.4s9.677 30.096 9.683 30.096c.403-.226 15.252-13.162 17.152-27.96.445-3.477-.66-5.839-2.618-7.408l-24.217 5.272z"/><path fill="#3479ea" d="m596.014 395.274-3.409-1.66c.838 8.861.264 17.101 9.342 16.266 17.413 3.514 52.216-7.614 51.485-12.636 0 0-.11-10.994-2.133-15.842l-24.67 5.122-30.615 8.75z" class="colorea4234 svgShape"/><path fill="#3b82f6" d="M590.94 397.943c.227 8.115 64.066-1.795 62.463-14.866l-7.973-51.444s15.501-67.041-7.96-82.382c-1.243-.813-2.459-1.469-3.826-1.695-9.232-1.527-27.816-1.327-36.863 5.677-16.564 12.824-15.825 125.326-5.84 144.71z" class="color4285f4 svgShape"/><path fill="#3479ea" d="M596.755 252.82c9.402-5.136 32.079-4.998 40.716-3.57 1.28.213-2.433-9.834-2.433-9.834-5.036-4.408-31.265-2.18-36.658 1.981-5.284 4.078-1.76 11.15-1.625 11.423zM549.799 389.803l-.464 9.115c-.57 1.972 5.86 4.065 12.005 4.977 5.427.806 10.01-3.124 8.887-7.603l.748-6.97-21.176.481z" class="colorea4234 svgShape"/><path fill="#3b82f6" d="M587.918 251.81s-11.587 6.486-16.815 22.587c-9.609 29.594.757 120.262.757 120.262-1.089 5.476-23.61.834-22.522-4.642 0 0-1.037-123.178 18.887-134.524 0 0 10.834-5.104 19.693-3.682z" class="color4285f4 svgShape"/><path fill="#cfe1ff" d="M562.662 181.338c-6.044 18.46-4.905 49.92 9.655 53.374 13.93 3.295 30.098-5.936 31.302-20.897.828.145 1.651.225 2.465.25.008.015.036.011.05.003 7.204-.314 13.552-9.21 8.485-15.11-2.313-2.693-4.763-2.745-6.837-1.87 1.064-6.114 1.566-12.071.426-16.001-1.512-5.192-13.88-16.59-13.88-16.59s-17.216-.038-24.868 5.942c-3.01 2.341-5.26 6.22-6.798 10.9z" class="colorffd4cf svgShape"/><linearGradient id="i" x1="3371.952" x2="3446.71" y1="2188.985" y2="2188.985" gradientTransform="scale(-1 1) rotate(-17.479 -5129.969 14203.647)" gradientUnits="userSpaceOnUse"><stop class="stopColor191923 svgShape" offset="0" stop-color="#191d23"/><stop class="stopColor0c0c14 svgShape" offset="1" stop-color="#0c0f14"/></linearGradient><path fill="url(#i)" d="M573.705 167.207c-.005 5.729-17.305 1.328-16.956 4.882 1.732 17.64 39.81 10.818 39.759 10.981-1.921 6.14 2.397 13.934 2.397 13.934l-3.626 8.211 3.787 1.193c2.837-8.601 8.716-9.32 8.716-9.32 2.074-.875 4.524-.823 6.837 1.87 5.067 5.9-1.28 14.796-8.484 15.11 23.453.795 33.018-43.923 12.517-53.743-16.917-19.755-44.92-7.807-44.947 6.882z"/><path fill="#1856bc" d="m629.59 187.03-18.08-7.016-36.617-19.149s10.628-20.488 34.528-13.16c27.06 8.295 20.17 39.325 20.17 39.325z" class="color185abc svgShape"/><path fill="#3b82f6" d="m573.213 176.418-.015.011c16.977 10.761 28.383 8.105 38.311 3.585 0 0-33.09-25.322-54.781-24.011 12.751 4.39 16.485 20.415 16.485 20.415z" class="color4285f4 svgShape"/><path fill="#073f9b" d="M556.829 172.72c9.005-5.183 16.369 3.71 16.369 3.71l.015-.012s-3.734-16.026-16.485-20.415c-9.895-.424.1 16.718.1 16.718z" class="color074a9b svgShape"/><linearGradient id="j" x1="563.52" x2="567.513" y1="198.422" y2="198.422" gradientUnits="userSpaceOnUse"><stop class="stopColor191923 svgShape" offset="0" stop-color="#191d23"/><stop class="stopColor0c0c14 svgShape" offset="1" stop-color="#0c0f14"/></linearGradient><path fill="url(#j)" d="M563.735 197.648c-.497 1.603-.102 3.242.883 3.667.986.425 2.185-.527 2.682-2.13.494-1.592.1-3.231-.886-3.656-.986-.425-2.185.527-2.679 2.12z"/><linearGradient id="k" x1="562.715" x2="572.487" y1="191.516" y2="191.516" gradientUnits="userSpaceOnUse"><stop class="stopColor191923 svgShape" offset="0" stop-color="#191d23"/><stop class="stopColor0c0c14 svgShape" offset="1" stop-color="#0c0f14"/></linearGradient><path fill="url(#k)" d="M571.735 193.426a.752.752 0 0 1-.667-.402c-1.472-2.79-4.78-2.05-7.296-.94a.753.753 0 0 1-.608-1.377c4.322-1.906 7.688-1.319 9.235 1.614a.752.752 0 0 1-.664 1.105z"/><linearGradient id="l" x1="581.029" x2="585.022" y1="202.024" y2="202.024" gradientUnits="userSpaceOnUse"><stop class="stopColor191923 svgShape" offset="0" stop-color="#191d23"/><stop class="stopColor0c0c14 svgShape" offset="1" stop-color="#0c0f14"/></linearGradient><path fill="url(#l)" d="M581.244 201.25c-.497 1.603-.103 3.242.883 3.667.986.425 2.184-.527 2.682-2.13.494-1.592.1-3.231-.886-3.656-.986-.425-2.185.527-2.679 2.12z"/><linearGradient id="m" x1="579.604" x2="589.604" y1="196.002" y2="196.002" gradientUnits="userSpaceOnUse"><stop class="stopColor191923 svgShape" offset="0" stop-color="#191d23"/><stop class="stopColor0c0c14 svgShape" offset="1" stop-color="#0c0f14"/></linearGradient><path fill="url(#m)" d="M588.851 199.271a.753.753 0 0 1-.668-.404c-1.795-3.438-4.528-5.045-7.704-4.526a.753.753 0 1 1-.243-1.486c3.861-.637 7.16 1.254 9.282 5.315a.753.753 0 0 1-.667 1.101z"/><path fill="#b3cdf8" d="M576.125 200.479c.31.942.202 1.947.074 2.915-.167.971-.456 1.94-.99 2.858a4.838 4.838 0 0 1-1.053 1.288 3.825 3.825 0 0 1-1.192.705l-.32.118c-.79.29-1.534.662-2.116 1.164-.599.488-1.013 1.106-1.197 1.757-.18.657-.05 1.346.358 1.92.418.571 1.146.98 1.982 1.173.843.192 1.774.183 2.73.096a6.19 6.19 0 0 1-2.811.855c-1.015.019-2.177-.247-3.03-1.09-.881-.805-1.273-2.13-1.063-3.313.192-1.194.893-2.215 1.733-2.92.84-.732 1.826-1.18 2.81-1.48l.347-.105c.071-.018.145-.035.216-.066.146-.05.292-.132.437-.229.292-.196.561-.478.83-.79.52-.635.963-1.42 1.344-2.239.376-.826.746-1.683.911-2.617zM574.33 225.725c-.105 0-.205-.003-.306-.009-2.448-.146-3.323-1.31-3.627-1.99a.754.754 0 0 1 1.377-.613c.164.369.686 1.002 2.34 1.1 1.693.1 4.369-1.032 5.666-2.114a.752.752 0 1 1 .964 1.155c-1.468 1.226-4.272 2.471-6.415 2.471z" class="colorf8b7b3 svgShape"/><path fill="#3b82f6" d="m477.321 298.482 9.102 7.173c4.262 3.402 16.689-23.28 12.515-26.619l-8.054-6.908c-3.154-2.531-16.716 23.823-13.563 26.354z" class="color4285f4 svgShape"/><path fill="#1856bc" d="M478.405 296.862c1.204.945 6.281-2.584 9.423-8.827 3.142-6.243 3.16-12.837 1.956-13.781-1.204-.945-4.728 3.35-7.87 9.594-3.142 6.243-4.713 12.07-3.509 13.014z" class="color185abc svgShape"/><linearGradient id="n" x1="3474.038" x2="3557.586" y1="372.66" y2="372.66" gradientTransform="matrix(-1 0 .0266 .9915 3987.567 -5.863)" gradientUnits="userSpaceOnUse"><stop class="stopColorfbbc04 svgShape" offset="0" stop-color="#0462fb"/><stop class="stopColorf29c03 svgShape" offset="1" stop-color="#035ef2"/></linearGradient><path fill="url(#n)" d="M457.417 402.916h83.226l-2.43-78.58h-83.226z"/><path fill="#cfe1ff" d="M556.478 348.381c.12.515.361 1.02.74 1.474l5.66 6.823 7.397-.968c-2.369-1.956-7.836-9.339-7.836-9.339-1.315-1.82-3.947-2.11-5.316-.585-.643.709-.843 1.673-.645 2.595z" class="colorffd4cf svgShape"/><linearGradient id="o" x1="3434.776" x2="3458.215" y1="372.66" y2="372.66" gradientTransform="matrix(-1 0 .0266 .9915 3987.567 -5.863)" gradientUnits="userSpaceOnUse"><stop class="stopColorfbbc04 svgShape" offset="0" stop-color="#0462fb"/><stop class="stopColorf29c03 svgShape" offset="1" stop-color="#035ef2"/></linearGradient><path fill="url(#o)" d="M563.76 402.916h-23.117l-2.43-78.58h23.117z"/><linearGradient id="p" x1="3492.704" x2="3515.281" y1="344.038" y2="344.038" gradientTransform="matrix(-1 0 .0266 .9915 3987.567 -5.863)" gradientUnits="userSpaceOnUse"><stop class="stopColor191923 svgShape" offset="0" stop-color="#191d23"/><stop class="stopColor0c0c14 svgShape" offset="1" stop-color="#0c0f14"/></linearGradient><path fill="url(#p)" d="m503.723 324.336.586 21.822-11.547-9.61-11.03 9.61-.586-21.822z"/><path fill="#3479ea" d="m580.838 354.375 57.575-22.29s-35.541-62.205-22.794-79.265c4.543-6.08 18.104-5.957 24.186-2.99 26.331 12.843 55.785 94.54 40.309 109.706-19.916 19.518-79.647 24.234-89.896 24.507-8.448 1.608-17.828-28.06-9.38-29.668z" class="colorea4234 svgShape"/><path fill="#3b82f6" d="m583.945 383.846 10.206-1.203c5.391-.704-.179-29.961-5.463-29.277l-10.484.98c-3.998.512 1.743 30.011 5.741 29.5z" class="color4285f4 svgShape"/><ellipse cx="581.224" cy="369.288" fill="#1856bc" class="color185abc svgShape" rx="2.761" ry="12.817" transform="rotate(-11.704 581.224 369.288)"/><path fill="#cfe1ff" d="M544.372 373.334c-1.339.332-2.993 1.133-2.67 2.983.68 3.97 4.794 4.25 8.363 3.686-2.17.924-3.805 2.53-2.217 5.61 2.834 5.46 34.557-5.14 34.557-5.14 4.075-.362-.188-22.652-4.255-22.3 0 0-6.507-1.344-7.875-2.463l-7.397.968s-22.549 1.205-23.492 5.228c-.941 4.083 3.544 4.019 5.232 4.315-3.56.452-8.47.57-8.089 3.375.53 4.013 5.32 4.015 7.843 3.738zm.01 0c.84-.22 1.552-.248 1.552-.248s-.617.141-1.552.247z" class="colorffd4cf svgShape"/><path fill="#cfe1ff" d="M544.382 373.333c.935-.106 1.552-.247 1.552-.247s-.711.028-1.552.247z" class="colorffd4cf svgShape"/><path fill="#b3cdf8" d="M542.995 359.536c-.977.344-1.965.728-2.787 1.357-.403.314-.752.724-.792 1.243-.088.504-.11 1.027.021 1.513.238 1.01 1.185 1.627 2.15 1.895.983.3 2.01.347 3.062.492a.187.187 0 0 1 0 .37h-.01c-1.73.247-3.474.383-5.137.79-.815.21-1.653.492-2.21 1.02a1.425 1.425 0 0 0-.454.948c-.012.347.076.776.206 1.147.253.76.779 1.385 1.453 1.806.682.416 1.484.65 2.306.767 1.647.223 3.393.066 5.018-.285l.132.99c-1.228.078-2.647.37-3.432 1.186-.387.404-.504.948-.398 1.543.105.625.317 1.223.671 1.728.698 1.032 1.959 1.572 3.246 1.767 1.301.2 2.656.123 3.985-.063a.254.254 0 0 1 .14.486c-.68.287-1.35.63-1.865 1.136-.527.489-.865 1.16-.893 1.878-.033.72.181 1.45.498 2.122.24.69 1.037.942 1.744 1.11 1.474.306 3.014.29 4.532.275 1.523-.027 3.046-.104 4.57-.156-1.522.092-3.042.21-4.567.276-1.522.054-3.058.115-4.584-.16-.38-.076-.76-.174-1.12-.354-.354-.163-.705-.486-.846-.86-.35-.689-.61-1.457-.598-2.267.003-.81.38-1.616.953-2.176.562-.583 1.269-.967 1.976-1.293l.14.486c-1.357.231-2.75.358-4.153.186-1.376-.165-2.87-.714-3.772-1.95-.449-.6-.72-1.31-.861-2.022-.176-.73-.022-1.671.542-2.274.538-.612 1.24-.948 1.924-1.183a8.838 8.838 0 0 1 2.128-.423.5.5 0 0 1 .154.985l-.022.005c-1.785.328-3.57.436-5.375.143-.894-.156-1.794-.439-2.589-.957-.79-.52-1.424-1.328-1.691-2.236-.138-.454-.23-.896-.2-1.419.042-.513.314-1.01.682-1.336.748-.653 1.65-.892 2.508-1.094 1.74-.37 3.488-.45 5.213-.644l-.01.371c-1.002-.17-2.072-.252-3.081-.592-.503-.169-.997-.403-1.413-.753-.411-.352-.724-.836-.834-1.366-.125-.527-.082-1.07.023-1.584.058-.547.456-.992.873-1.292.858-.616 1.856-.966 2.844-1.282z" class="colorf8b7b3 svgShape"/><path fill="#b3cdf8" d="M544.199 365.89c1.45-.243 2.907-.423 4.364-.597 1.458-.175 2.92-.298 4.379-.46l4.39-.357c1.465-.104 2.93-.206 4.406-.27-1.426.388-2.873.672-4.322.94-1.45.266-2.907.464-4.361.685-1.46.17-2.919.362-4.383.493-1.465.132-2.93.25-4.404.29a.365.365 0 0 1-.07-.725zM545.74 372.799c1.45-.242 2.907-.423 4.364-.596 1.457-.176 2.92-.298 4.378-.46l4.39-.358c1.466-.104 2.931-.205 4.407-.27-1.426.388-2.874.673-4.322.94-1.45.266-2.907.465-4.362.686-1.46.169-2.918.362-4.383.493-1.464.132-2.93.25-4.403.29a.365.365 0 0 1-.07-.725zM549.66 379.758c1.45-.242 2.907-.422 4.364-.596 1.458-.175 2.92-.298 4.378-.46l4.39-.357c1.466-.104 2.931-.206 4.407-.27-1.427.388-2.874.672-4.322.94-1.45.266-2.907.464-4.362.685-1.46.17-2.918.362-4.383.493-1.464.132-2.93.25-4.403.29a.365.365 0 0 1-.07-.725z" class="colorf8b7b3 svgShape"/><path fill="#cfe1ff" d="M489.377 277.025c2.225 1.181-5.112 17.702-10.053 17.395 0 0-23.89-.927-23.648-6.96.14-3.467 1.791-3.83 3.164-3.515-1.536-.887-3.402-2.51-3.098-5.155.305-2.61 2.046-1.813 3.44-1.152-1.133-.812-3.284-2.582-2.719-4.75.84-3.213 2.553-3.383 4.51-2.93-4.519-2.14-17.686-10.602-16.562-14.193 2.444-7.876 26.039 10.353 26.664 10.908 0 0-4.762-11.313-.39-10.708 5.497.762 18.692 21.06 18.692 21.06z" class="colorffd4cf svgShape"/><path fill="#b3cdf8" d="M467.19 293.165c-1.586-.23-3.17-.504-4.729-.895-1.556-.397-3.113-.853-4.556-1.626-.712-.393-1.422-.852-1.944-1.545-.248-.352-.45-.759-.51-1.204-.065-.463-.02-.854.022-1.27.103-.812.295-1.684.917-2.374.639-.717 1.707-.829 2.524-.628l-.239.607c-.83-.467-1.615-1.057-2.236-1.825a4.855 4.855 0 0 1-1.11-2.736 5.287 5.287 0 0 1 .11-1.497c.106-.483.332-1.074.912-1.412.589-.312 1.205-.2 1.674-.061.487.146.922.35 1.343.547l-.439.745c-.836-.601-1.647-1.288-2.264-2.189a4.295 4.295 0 0 1-.673-1.527c-.125-.556-.07-1.186.087-1.7.292-.985.701-2.087 1.722-2.778.503-.332 1.108-.48 1.67-.494.565-.017 1.1.073 1.61.188l-.314.901c-4.064-2.02-7.802-4.501-11.349-7.29-1.738-1.43-3.488-2.886-4.797-4.854-.31-.503-.607-1.045-.697-1.717-.034-.329-.01-.723.123-1.024.142-.285.214-.6.447-.846l.307-.384.394-.297c.252-.224.575-.285.865-.42.301-.076.61-.133.911-.167.299-.002.604-.027.897 0 1.182.084 2.289.41 3.358.788 1.073.378 2.107.834 3.118 1.33 2.024.987 3.966 2.113 5.864 3.303 3.775 2.41 7.417 5.019 10.867 7.86-3.596-2.65-7.308-5.142-11.143-7.409-1.913-1.14-3.866-2.212-5.88-3.137a28.16 28.16 0 0 0-3.071-1.228c-1.038-.343-2.107-.623-3.16-.671-1.048-.075-2.097.17-2.624.943-.17.16-.214.42-.325.628-.093.214-.086.393-.073.618.057.445.3.916.578 1.353 1.183 1.76 2.92 3.215 4.63 4.591 1.739 1.369 3.566 2.636 5.434 3.833 1.87 1.188 3.77 2.367 5.737 3.33l.01.005a.48.48 0 0 1-.324.896c-.927-.225-1.871-.29-2.55.156-.691.439-1.093 1.341-1.355 2.244-.288.85-.073 1.712.446 2.479.512.765 1.247 1.41 2.03 1.98a.434.434 0 0 1-.439.746c-.414-.198-.818-.387-1.216-.51-.397-.127-.782-.15-1.022-.017-.508.261-.674 1.317-.643 2.115.038.844.357 1.66.892 2.338.527.685 1.23 1.247 1.998 1.702l.009.005a.329.329 0 0 1-.248.602c-.713-.179-1.463-.102-1.94.404-.482.5-.7 1.27-.808 2.026-.126.794-.111 1.502.342 2.119.424.613 1.073 1.081 1.742 1.48 1.36.797 2.888 1.312 4.416 1.762 1.537.438 3.099.8 4.672 1.108z" class="colorf8b7b3 svgShape"/><path fill="#b3cdf8" d="m459 283.469 3.618 1.737-3.937-.785a.506.506 0 1 1 .318-.952zM459.412 277.192l2.62 1.911-3.08-1.018a.508.508 0 1 1 .46-.893z" class="colorf8b7b3 svgShape"/><path fill="#d4e1f6" d="m467.291 90.787-1.817 10.34-2.058 11.744-.371 2.078-.773 4.427-.863 4.918-.773 4.427-.241 1.345-3.323 18.962-2.399 13.672-3.624 20.679-4.908 27.976a3.825 3.825 0 0 1-3.775 3.172H333.513c-2.38 0-4.176-2.148-3.775-4.497l.392-2.188.24-1.435 1.808-10.29 1.395-7.94.23-1.305-21.913 4.849 24.333-21.984.693-.622 7.076-40.394.783-4.427.864-4.918.773-4.427 4.477-25.487a3.825 3.825 0 0 1 3.774-3.172h108.844c2.389 0 4.186 2.148 3.784 4.497z" class="colord4e3f6 svgShape"/><path fill="#fff" d="M377.442 135.106h-15.197l-4.99-12.335 10.662-14.206h15.197l4.99 12.336z" class="colorffffff svgShape"/><path fill="#aecbfa" d="m446.14 211.355 4.91-27.976.513-2.93c-8.3 10.212-18.266 19.187-29.364 26.46a124.015 124.015 0 0 1-5.87 3.627 127.796 127.796 0 0 1-7.427 3.991h33.465a3.825 3.825 0 0 0 3.774-3.172z" class="coloraecbfa svgShape"/><path fill="#98b6e6" d="M461.171 86.29h-13.164c6.715 11.892 8.293 26.447 4.395 41.74-10.102 39.654-53.271 71.92-96.224 71.92-8.681 0-16.758-1.307-23.998-3.829l-1.804 10.284-.251 1.44c8.062 2.59 16.792 3.903 26.053 3.903 23.3 0 47.293-8.362 67.56-23.546 14.556-10.898 25.99-24.416 33.338-39.178l3.323-18.955.236-1.351.777-4.424.86-4.916.777-4.424.364-2.084 2.06-11.739c-.826-5.161-2.262-10.131-4.302-14.84z" class="color98b1e6 svgShape"/><path fill="#aecbfa" d="M349.96 114.954h-3.586l4.432-25.345a4.003 4.003 0 0 1 3.939-3.318h7.96l-2.975 15.592-9.77 13.07zM443.36 128.721c-5.17 19.655-18.3 36.97-35.385 48.575a85.975 85.975 0 0 1-5.31 3.363 83.402 83.402 0 0 1-3.583 1.997c-7.469 3.925-15.49 6.816-23.76 8.422l9.977-51.134 8.422-11.223h49.639zM445.589 114.954h-50.67l-6.165-15.952H375.55l2.32-12.711h63.275c3.446 8.621 5.053 18.328 4.444 28.663z" class="coloraecbfa svgShape"/><path fill="#fff" d="m426.687 86.29-8.573 41.709-.15.722-9.989 48.575a85.975 85.975 0 0 1-5.31 3.363 83.402 83.402 0 0 1-3.583 1.997l11.252-53.935.151-.722 2.911-13.954 5.712-27.755h7.579z" class="colorffffff svgShape"/><path fill="#0462fb" d="M377.615 134.621h-14.713L357.88 122.2l9.865-13.149h14.713l5.024 12.422-9.866 13.15zm14.32-15.243-6.165-15.244h-15.573l3.412-17.843h-5.004l-3.446 18.01-11.306 15.077h-8.214l-.865 4.916h8.651l6.164 15.243h16.271l-14.629 74.988h5.01l14.908-76.423 10.358-13.808h69.905l.86-4.916h-70.338z" class="colorfbbc04 svgShape"/><path fill="#3479ea" d="M366.336 159.515c-.41 9.49-11.222 18.976-11.222 18.976s-9.99-9.486-9.578-18.976c.25-5.795 5.112-10.496 10.855-10.496 5.742 0 10.196 4.7 9.945 10.496z" class="colorea4234 svgShape"/><ellipse cx="355.936" cy="159.516" fill="#fff" class="colorffffff svgShape" rx="6.104" ry="5.838" transform="rotate(-50.293 355.936 159.516)"/><path fill="#3479ea" d="M422.987 88.967c-.44 10.174-12.03 20.343-12.03 20.343s-10.71-10.169-10.269-20.343c.27-6.212 5.481-11.251 11.637-11.251 6.156 0 10.931 5.039 10.662 11.251z" class="colorea4234 svgShape"/><ellipse cx="411.838" cy="88.968" fill="#fff" class="colorffffff svgShape" rx="6.543" ry="6.259" transform="rotate(-50.293 411.838 88.968)"/><ellipse cx="196.014" cy="332.139" fill="#6b86b2" class="color6bb26e svgShape" rx="62.674" ry="69.168" transform="rotate(-46.411 196.014 332.139)"/><path fill="#fff" d="M230.912 306.461c-2.62 5.34-5.744 10.213-8.986 14.978-3.264 4.753-6.733 9.312-10.367 13.73-7.258 8.834-15.042 17.18-23.515 24.919l-.457.423c-1.364 1.248-3.607 1.064-5.013-.423-1.5-1.574-2.952-3.191-4.403-4.808a245.275 245.275 0 0 1-4.287-4.95c-2.795-3.364-10.078-12.751-12.579-16.43 3.892 2.148 12.073 10.526 15.68 12.99a245.31 245.31 0 0 1 5.324 3.799c.574.423 1.147.846 1.722 1.28 6.264-8.237 13.098-15.976 20.35-23.335 4.028-4.059 8.2-7.977 12.574-11.71 4.399-3.712 8.916-7.326 13.957-10.463z" class="colorffffff svgShape"/><path fill="#d4e1f6" d="m153.703 178.084 3.318 51.565c.247 3.842-2.612 6.954-6.377 6.954H97.337c-3.766 0-7.025-3.112-7.272-6.954l-3.318-51.565c-.246-3.83 2.612-6.943 6.378-6.943h53.307c3.766 0 7.025 3.112 7.271 6.943z" class="colord4e3f6 svgShape"/><ellipse cx="121.223" cy="193.59" fill="#fff" class="colorffffff svgShape" rx="9.154" ry="9.789" transform="rotate(-38.535 121.223 193.59)"/><path fill="#fff" d="M141.343 223.702c-1.201-9.718-9.605-17.425-19.304-17.425-9.698 0-17.11 7.707-17.062 17.425h36.366z" class="colorffffff svgShape"/><path fill="#d4e1f6" d="M219.36 191.946h-51.3l-1.015-15.783h51.3zM208.791 203.254h-40.003l.36 5.607h40.004zM221.163 203.254l.361 5.607h56.093l-.36-5.607zM240.473 214.936H169.54l.36 5.606h70.934zM254.298 214.936l.36 5.606h23.71l-.36-5.606zM207.014 226.617l.36 5.607H224.1l-.36-5.607zM193.798 226.617h-23.507l.36 5.607h23.508zM170.107 425.56l2.864 25.461h-25.46l-2.864-25.46zM219.358 425.56l2.864 25.461h-25.46l-2.864-25.46zM268.61 425.56l2.863 25.461h-25.46l-2.864-25.46zM296.433 493.219h-167.19l-2.14-11.768h167.19zM301.864 523.09H134.676l-2.14-11.767h167.189z" class="colord4e3f6 svgShape"/><linearGradient id="q" x1="416.234" x2="394.391" y1="566.042" y2="533.484" gradientUnits="userSpaceOnUse"><stop class="stopColorfbbc04 svgShape" offset="0" stop-color="#0462fb"/><stop class="stopColorf29c03 svgShape" offset="1" stop-color="#035ef2"/></linearGradient><path fill="url(#q)" d="m425.211 521.775-47.018 8.426v36.787l47.018-7.365z"/><path fill="#0054dd" d="m425.215 521.772-47.024 8.431h-111.46l43.365-8.431z" class="colordd8800 svgShape"/><linearGradient id="r" x1="373.976" x2="272.388" y1="532.711" y2="564.032" gradientUnits="userSpaceOnUse"><stop class="stopColorfbbc04 svgShape" offset="0" stop-color="#0462fb"/><stop class="stopColorf29c03 svgShape" offset="1" stop-color="#035ef2"/></linearGradient><path fill="url(#r)" d="M266.725 530.201h111.468v36.787H266.725z"/><linearGradient id="s" x1="308.412" x2="343.969" y1="537.94" y2="537.94" gradientUnits="userSpaceOnUse"><stop class="stopColor191923 svgShape" offset="0" stop-color="#191d23"/><stop class="stopColor0c0c14 svgShape" offset="1" stop-color="#0c0f14"/></linearGradient><path fill="url(#s)" d="M308.412 530.203h35.557v15.473h-35.557z"/><linearGradient id="t" x1="308.412" x2="386.378" y1="525.987" y2="525.987" gradientUnits="userSpaceOnUse"><stop class="stopColor191923 svgShape" offset="0" stop-color="#191d23"/><stop class="stopColor0c0c14 svgShape" offset="1" stop-color="#0c0f14"/></linearGradient><path fill="url(#t)" d="m386.378 521.772-42.409 8.431h-35.557l44.005-8.431z"/><linearGradient id="u" x1="409.241" x2="365.008" y1="523.472" y2="499.074" gradientUnits="userSpaceOnUse"><stop class="stopColorfbbc04 svgShape" offset="0" stop-color="#0462fb"/><stop class="stopColorf29c03 svgShape" offset="1" stop-color="#035ef2"/></linearGradient><path fill="url(#u)" d="m402.153 483.989-47.019 8.426v36.787l47.019-7.365z"/><path fill="#0054dd" d="m402.156 483.986-47.023 8.431h-111.46l43.365-8.431z" class="colordd8800 svgShape"/><linearGradient id="v" x1="345.736" x2="314.373" y1="481.611" y2="501.374" gradientUnits="userSpaceOnUse"><stop class="stopColorfbbc04 svgShape" offset="0" stop-color="#0462fb"/><stop class="stopColorf29c03 svgShape" offset="1" stop-color="#035ef2"/></linearGradient><path fill="url(#v)" d="M243.667 492.415h111.468v36.787H243.667z"/><linearGradient id="w" x1="285.354" x2="320.911" y1="500.154" y2="500.154" gradientUnits="userSpaceOnUse"><stop class="stopColor191923 svgShape" offset="0" stop-color="#191d23"/><stop class="stopColor0c0c14 svgShape" offset="1" stop-color="#0c0f14"/></linearGradient><path fill="url(#w)" d="M285.354 492.417h35.557v15.473h-35.557z"/><linearGradient id="x" x1="285.354" x2="363.32" y1="488.202" y2="488.202" gradientUnits="userSpaceOnUse"><stop class="stopColor191923 svgShape" offset="0" stop-color="#191d23"/><stop class="stopColor0c0c14 svgShape" offset="1" stop-color="#0c0f14"/></linearGradient><path fill="url(#x)" d="m363.32 483.986-42.41 8.431h-35.556l44.004-8.431z"/></svg>